<?xml version="1.0" encoding="utf-8"?>
<!-- Generator: Adobe Illustrator 18.0.0, SVG Export Plug-In . SVG Version: 6.00 Build 0)  -->
<!DOCTYPE svg PUBLIC "-//W3C//DTD SVG 1.1//EN" "http://www.w3.org/Graphics/SVG/1.1/DTD/svg11.dtd">
<svg version="1.1" id="Layer_1" xmlns="http://www.w3.org/2000/svg" xmlns:xlink="http://www.w3.org/1999/xlink" x="0px" y="0px"
	 viewBox="0 0 1000 1000" enable-background="new 0 0 1000 1000" xml:space="preserve">
<g>
	
		<text transform="matrix(1 0 0 1 391.943 606.7003)" fill="#5554A4" font-family="'ArgentumSans-ExtraBoldItalic'" font-size="97.3201" letter-spacing="-7">El Farina</text>
	<g>
		<path fill="#5554A4" d="M323.7,579.6l50.4-53.6l-71.7,4.8C303.8,549.7,311.6,566.6,323.7,579.6z"/>
		<path fill="#5554A4" d="M325.5,467.9l52.3,43.6l-4.5-67C354.7,446.7,338,455.2,325.5,467.9z"/>
		<path fill="#5554A4" d="M302.2,522.2l69.2-4.7l-51.6-43.1C309.2,487.6,302.8,504.1,302.2,522.2z"/>
		<path fill="#5554A4" d="M382,443.9l4.8,70.9l45.1-54.4c-13.6-10.4-30.6-16.5-49-16.5C382.7,443.9,382.3,443.9,382,443.9z"/>
		<path fill="#5554A4" d="M392,523.3l1.6,1.4h70.2c0-23.1-9.7-43.9-25.2-58.7l-46.7,56.2L392,523.3z"/>
		<path fill="#5554A4" d="M381,531.5l-51.1,54.2c14.2,12.4,32.7,19.8,53,19.8v-74.2L381,531.5z"/>
		<path fill="#5554A4" d="M383,435.9c20.3,0,39.1,6.8,54.1,18.4l5.3-6.4c-16.4-12.7-37-20.3-59.4-20.3c-0.7,0-1.4,0-2.1,0l0.6,8.3
			C382,435.9,382.5,435.9,383,435.9z"/>
		<path fill="#5554A4" d="M383,621.9v-8.3c-22.4,0-42.9-8.3-58.5-22l-5.7,6.1C335.9,612.7,358.4,621.9,383,621.9z"/>
		<path fill="#5554A4" d="M313.6,469.3l-6.4-5.3c-13.1,16.3-21,36.9-21.3,59.3l8.3-0.6C294.6,502.5,301.8,484,313.6,469.3z"/>
		<path fill="#5554A4" d="M372.8,436.5l-0.6-8.3c-23.2,2.6-43.9,13.3-59.2,29.2l6.4,5.4C333.3,448.5,351.9,438.9,372.8,436.5z"/>
		<path fill="#5554A4" d="M294.4,531.4l-8.3,0.6c1.7,23,11.4,43.8,26.4,59.5l5.7-6.1C304.7,571.1,296,552.3,294.4,531.4z"/>
		<path fill="#5554A4" d="M449,453.5l-5.3,6.4c17.3,16.2,28.1,39.2,28.1,64.8h8.3C480.1,496.6,468.2,471.2,449,453.5z"/>
	</g>
	<text transform="matrix(1 0 0 1 443.7086 643.92)" fill="#5554A4" font-family="'ArgentumSans-Italic'" font-size="22.2446">...serving delicious moments</text>
</g>
</svg>
