<?xml version="1.0" encoding="utf-8"?>
<!-- Generator: Adobe Illustrator 18.0.0, SVG Export Plug-In . SVG Version: 6.00 Build 0)  -->
<!DOCTYPE svg PUBLIC "-//W3C//DTD SVG 1.1//EN" "http://www.w3.org/Graphics/SVG/1.1/DTD/svg11.dtd">
<svg version="1.1" id="Layer_1" xmlns="http://www.w3.org/2000/svg" xmlns:xlink="http://www.w3.org/1999/xlink" x="0px" y="0px"
	 viewBox="0 0 2000 1000" enable-background="new 0 0 2000 1000" xml:space="preserve">
<path d="M1386.9,461.8l-155.3-123.1c-1.4-0.7-3.5-0.7-4.2,0.7l-12.6,16.1c-0.7,1.4-0.7,3.5,0.7,4.2l122.4,96.5
	c2.1,2.1,0.7,5.6-2.1,5.6H951.1c-1.4,0-2.8,1.4-2.8,2.8v20.3c0,1.4,1.4,2.8,2.8,2.8h384.1c2.8,0,4.2,3.5,2.1,5.6l-161.6,123.8
	c-1.4,0.7-1.4,2.8-0.7,4.2l12.6,16.1c0.7,1.4,2.8,1.4,4.2,0.7l196.6-150.4l14-10.5c1.4-1.4,1.4-3.5,0-4.9L1386.9,461.8z"/>
</svg>
